<svg width="1098" height="57" viewBox="0 0 1098 57" fill="none" xmlns="http://www.w3.org/2000/svg">
<line x1="46" y1="37" x2="1053" y2="37" stroke="#F6F6F6" stroke-width="2"/>
<circle cx="46" cy="37" r="6" fill="#F6F6F6"/>
<path d="M45.9473 50.4434C45.9473 51.6465 45.7266 52.5605 45.2852 53.1855C44.8438 53.8066 44.1934 54.1172 43.334 54.1172C42.4902 54.1172 41.8438 53.8125 41.3945 53.2031C40.9453 52.5898 40.7148 51.6992 40.7031 50.5312V49.002C40.7031 47.8027 40.9258 46.8945 41.3711 46.2773C41.8164 45.6602 42.4668 45.3516 43.3223 45.3516C44.166 45.3516 44.8105 45.6504 45.2559 46.248C45.7012 46.8418 45.9316 47.7188 45.9473 48.8789V50.4434ZM45.2441 48.9141C45.2441 47.9375 45.084 47.1992 44.7637 46.6992C44.4473 46.1992 43.9668 45.9492 43.3223 45.9492C42.6895 45.9492 42.2129 46.1934 41.8926 46.6816C41.5723 47.1699 41.4082 47.8906 41.4004 48.8438V50.5195C41.4004 51.4922 41.5645 52.2363 41.8926 52.752C42.2246 53.2676 42.7051 53.5254 43.334 53.5254C43.959 53.5254 44.4316 53.2734 44.752 52.7695C45.0762 52.2656 45.2402 51.5273 45.2441 50.5547V48.9141ZM47.4004 53.5781C47.4004 53.4414 47.4434 53.3262 47.5293 53.2324C47.6191 53.1348 47.7422 53.0859 47.8984 53.0859C48.0547 53.0859 48.1777 53.1348 48.2676 53.2324C48.3574 53.3262 48.4023 53.4414 48.4023 53.5781C48.4023 53.7148 48.3574 53.8281 48.2676 53.918C48.1777 54.0039 48.0547 54.0469 47.8984 54.0469C47.7422 54.0469 47.6191 54.0039 47.5293 53.918C47.4434 53.8281 47.4004 53.7148 47.4004 53.5781ZM47.4121 48.1699C47.4121 48.0332 47.4551 47.918 47.541 47.8242C47.6309 47.7266 47.7539 47.6777 47.9102 47.6777C48.0664 47.6777 48.1895 47.7266 48.2793 47.8242C48.3691 47.918 48.4141 48.0332 48.4141 48.1699C48.4141 48.3066 48.3691 48.4199 48.2793 48.5098C48.1895 48.5957 48.0664 48.6387 47.9102 48.6387C47.7539 48.6387 47.6309 48.5957 47.541 48.5098C47.4551 48.4199 47.4121 48.3066 47.4121 48.1699ZM55.123 50.4434C55.123 51.6465 54.9023 52.5605 54.4609 53.1855C54.0195 53.8066 53.3691 54.1172 52.5098 54.1172C51.666 54.1172 51.0195 53.8125 50.5703 53.2031C50.1211 52.5898 49.8906 51.6992 49.8789 50.5312V49.002C49.8789 47.8027 50.1016 46.8945 50.5469 46.2773C50.9922 45.6602 51.6426 45.3516 52.498 45.3516C53.3418 45.3516 53.9863 45.6504 54.4316 46.248C54.877 46.8418 55.1074 47.7188 55.123 48.8789V50.4434ZM54.4199 48.9141C54.4199 47.9375 54.2598 47.1992 53.9395 46.6992C53.623 46.1992 53.1426 45.9492 52.498 45.9492C51.8652 45.9492 51.3887 46.1934 51.0684 46.6816C50.748 47.1699 50.584 47.8906 50.5762 48.8438V50.5195C50.5762 51.4922 50.7402 52.2363 51.0684 52.752C51.4004 53.2676 51.8809 53.5254 52.5098 53.5254C53.1348 53.5254 53.6074 53.2734 53.9277 52.7695C54.252 52.2656 54.416 51.5273 54.4199 50.5547V48.9141ZM61.7793 50.4434C61.7793 51.6465 61.5586 52.5605 61.1172 53.1855C60.6758 53.8066 60.0254 54.1172 59.166 54.1172C58.3223 54.1172 57.6758 53.8125 57.2266 53.2031C56.7773 52.5898 56.5469 51.6992 56.5352 50.5312V49.002C56.5352 47.8027 56.7578 46.8945 57.2031 46.2773C57.6484 45.6602 58.2988 45.3516 59.1543 45.3516C59.998 45.3516 60.6426 45.6504 61.0879 46.248C61.5332 46.8418 61.7637 47.7188 61.7793 48.8789V50.4434ZM61.0762 48.9141C61.0762 47.9375 60.916 47.1992 60.5957 46.6992C60.2793 46.1992 59.7988 45.9492 59.1543 45.9492C58.5215 45.9492 58.0449 46.1934 57.7246 46.6816C57.4043 47.1699 57.2402 47.8906 57.2324 48.8438V50.5195C57.2324 51.4922 57.3965 52.2363 57.7246 52.752C58.0566 53.2676 58.5371 53.5254 59.166 53.5254C59.791 53.5254 60.2637 53.2734 60.584 52.7695C60.9082 52.2656 61.0723 51.5273 61.0762 50.5547V48.9141Z" fill="#F6F6F6"/>
<path d="M1027.07 54H1026.36V46.3125L1024.04 47.1738V46.5176L1026.95 45.4395H1027.07V54ZM1035.6 50.4434C1035.6 51.6465 1035.38 52.5605 1034.94 53.1855C1034.5 53.8066 1033.85 54.1172 1032.99 54.1172C1032.15 54.1172 1031.5 53.8125 1031.05 53.2031C1030.6 52.5898 1030.37 51.6992 1030.36 50.5312V49.002C1030.36 47.8027 1030.58 46.8945 1031.03 46.2773C1031.47 45.6602 1032.12 45.3516 1032.98 45.3516C1033.82 45.3516 1034.47 45.6504 1034.91 46.248C1035.36 46.8418 1035.59 47.7188 1035.6 48.8789V50.4434ZM1034.9 48.9141C1034.9 47.9375 1034.74 47.1992 1034.42 46.6992C1034.1 46.1992 1033.62 45.9492 1032.98 45.9492C1032.35 45.9492 1031.87 46.1934 1031.55 46.6816C1031.23 47.1699 1031.06 47.8906 1031.06 48.8438V50.5195C1031.06 51.4922 1031.22 52.2363 1031.55 52.752C1031.88 53.2676 1032.36 53.5254 1032.99 53.5254C1033.62 53.5254 1034.09 53.2734 1034.41 52.7695C1034.73 52.2656 1034.9 51.5273 1034.9 50.5547V48.9141ZM1037.06 53.5781C1037.06 53.4414 1037.1 53.3262 1037.19 53.2324C1037.28 53.1348 1037.4 53.0859 1037.55 53.0859C1037.71 53.0859 1037.83 53.1348 1037.92 53.2324C1038.01 53.3262 1038.06 53.4414 1038.06 53.5781C1038.06 53.7148 1038.01 53.8281 1037.92 53.918C1037.83 54.0039 1037.71 54.0469 1037.55 54.0469C1037.4 54.0469 1037.28 54.0039 1037.19 53.918C1037.1 53.8281 1037.06 53.7148 1037.06 53.5781ZM1037.07 48.1699C1037.07 48.0332 1037.11 47.918 1037.2 47.8242C1037.29 47.7266 1037.41 47.6777 1037.57 47.6777C1037.72 47.6777 1037.85 47.7266 1037.94 47.8242C1038.03 47.918 1038.07 48.0332 1038.07 48.1699C1038.07 48.3066 1038.03 48.4199 1037.94 48.5098C1037.85 48.5957 1037.72 48.6387 1037.57 48.6387C1037.41 48.6387 1037.29 48.5957 1037.2 48.5098C1037.11 48.4199 1037.07 48.3066 1037.07 48.1699ZM1044.78 50.4434C1044.78 51.6465 1044.56 52.5605 1044.12 53.1855C1043.68 53.8066 1043.03 54.1172 1042.17 54.1172C1041.32 54.1172 1040.68 53.8125 1040.23 53.2031C1039.78 52.5898 1039.55 51.6992 1039.54 50.5312V49.002C1039.54 47.8027 1039.76 46.8945 1040.2 46.2773C1040.65 45.6602 1041.3 45.3516 1042.15 45.3516C1043 45.3516 1043.64 45.6504 1044.09 46.248C1044.53 46.8418 1044.76 47.7188 1044.78 48.8789V50.4434ZM1044.08 48.9141C1044.08 47.9375 1043.92 47.1992 1043.6 46.6992C1043.28 46.1992 1042.8 45.9492 1042.15 45.9492C1041.52 45.9492 1041.04 46.1934 1040.72 46.6816C1040.4 47.1699 1040.24 47.8906 1040.23 48.8438V50.5195C1040.23 51.4922 1040.4 52.2363 1040.72 52.752C1041.06 53.2676 1041.54 53.5254 1042.17 53.5254C1042.79 53.5254 1043.26 53.2734 1043.58 52.7695C1043.91 52.2656 1044.07 51.5273 1044.08 50.5547V48.9141ZM1051.44 50.4434C1051.44 51.6465 1051.21 52.5605 1050.77 53.1855C1050.33 53.8066 1049.68 54.1172 1048.82 54.1172C1047.98 54.1172 1047.33 53.8125 1046.88 53.2031C1046.43 52.5898 1046.2 51.6992 1046.19 50.5312V49.002C1046.19 47.8027 1046.41 46.8945 1046.86 46.2773C1047.3 45.6602 1047.96 45.3516 1048.81 45.3516C1049.65 45.3516 1050.3 45.6504 1050.74 46.248C1051.19 46.8418 1051.42 47.7188 1051.44 48.8789V50.4434ZM1050.73 48.9141C1050.73 47.9375 1050.57 47.1992 1050.25 46.6992C1049.94 46.1992 1049.46 45.9492 1048.81 45.9492C1048.18 45.9492 1047.7 46.1934 1047.38 46.6816C1047.06 47.1699 1046.9 47.8906 1046.89 48.8438V50.5195C1046.89 51.4922 1047.05 52.2363 1047.38 52.752C1047.71 53.2676 1048.19 53.5254 1048.82 53.5254C1049.45 53.5254 1049.92 53.2734 1050.24 52.7695C1050.56 52.2656 1050.73 51.5273 1050.73 50.5547V48.9141Z" fill="#F6F6F6"/>
<path d="M39 1V25L57 12.9124L39.2609 1" stroke="#F6F6F6" stroke-width="2" stroke-linecap="round" stroke-linejoin="round"/>
<path d="M1028 9V1H1036M1044 1H1052V9M1028 17V25H1036M1052 17V25H1044" stroke="#F6F6F6" stroke-width="2" stroke-linecap="round" stroke-linejoin="round"/>
</svg>
